# xmcd
#
# Track frame offsets: 
#        150
#        13146
#        29664
#        42028
#        57461
#        71624
#        86249
#        101863
#        118476
#        137715
#        146998
#        161471
#        176535
#        188998
#        202873
#        217161
#        227633
#        241253
#        253557
#        265251
#
# Disc length: 3655 seconds
#
# Revision: 1
# Processed by: cddbd v1.5.2PL0 Copyright (c) Steve Scherf et al.
# Submitted via: ExactAudioCopyFreeDBPlugin 1.0
#
DISCID=340e4514
DTITLE=鄧麗君 - 何日君再來
DYEAR=2016
DGENRE=Pop
TTITLE0=何日君再來
TTITLE1=再來一杯
TTITLE2=南海姑娘
TTITLE3=月亮代表我的心
TTITLE4=夜來香
TTITLE5=難忘初戀情人
TTITLE6=再見!我的愛人
TTITLE7=淚的小雨
TTITLE8=誰來愛我
TTITLE9=路邊的野花不要採
TTITLE10=海韻
TTITLE11=四個願望
TTITLE12=美酒加咖啡
TTITLE13=我要對你說
TTITLE14=舊夢何處尋
TTITLE15=一見鍾情
TTITLE16=山南山北走一回
TTITLE17=娜奴娃情歌
TTITLE18=記得你記得我
TTITLE19=香港假期
EXTD=
EXTT0=
EXTT1=
EXTT2=
EXTT3=
EXTT4=
EXTT5=
EXTT6=
EXTT7=
EXTT8=
EXTT9=
EXTT10=
EXTT11=
EXTT12=
EXTT13=
EXTT14=
EXTT15=
EXTT16=
EXTT17=
EXTT18=
EXTT19=
PLAYORDER=
